#!OML:ASF F:\VICON\USERDATA\INSTALL\Justin_Nancy\Justin_Nancy.ASF
:FULLY-SPECIFIED
:DEGREES
410
root 13.8215 17.6939 25.6349 -1.6026 39.0771 -0.661119
lowerback 6.32283 -0.903435 -0.889252
upperback 0.522925 -1.14396 3.29668
thorax -2.92142 -0.532862 4.01228
lowerneck -13.4148 -3.35764 -9.56076
upperneck 24.9545 -3.27868 3.97445
head 10.4443 -1.88622 2.62014
rclavicle 3.13583e-014 2.38542e-014
rhumerus -37.3443 -17.3936 -74.6267
rradius 25.6976
rwrist 13.0961
rhand -14.2131 12.1506
rfingers 7.12502
rthumb 11.9236 -17.4898
lclavicle 3.13583e-014 2.38542e-014
lhumerus -30.6028 6.00375 86.1335
lradius 29.6742
lwrist -10.009
lhand -14.6591 22.7563
lfingers 7.12502
lthumb 11.4935 52.4213
rfemur -10.5778 0.8809 25.1066
rtibia 16.7662
rfoot -1.61869 -0.101645
rtoes -6.74543
lfemur -9.75942 -1.16332 -19.0986
ltibia 61.9821
lfoot 23.6259 -6.51753
ltoes -4.71148
411
root 13.8898 17.707 25.7686 -2.03364 38.8935 -1.02286
lowerback 6.51842 -0.74867 -0.73901
upperback 0.572448 -0.921773 3.3822
thorax -2.9976 -0.422266 4.00098
lowerneck -13.3147 -3.55067 -9.9668
upperneck 25.0383 -3.54467 4.28955
head 10.4921 -2.01162 2.76876
rclavicle 7.05189e-014 1.27222e-014
rhumerus -37.1536 -17.2663 -74.6596
rradius 26.0492
rwrist 13.1218
rhand -13.9094 11.8315
rfingers 7.12502
rthumb 12.2165 -17.7917
lclavicle 7.05189e-014 1.27222e-014
lhumerus -30.666 6.27293 86.2081
lradius 29.2379
lwrist -11.1595
lhand -14.4935 21.1748
lfingers 7.12502
lthumb 11.6532 50.8307
rfemur -9.64174 1.49881 25.508
rtibia 16.3831
rfoot -1.70203 -0.581997
rtoes -5.08772
lfemur -10.7983 -0.835468 -18.612
ltibia 63.3388
lfoot 21.817 -6.05027
ltoes -4.16374
412
root 13.9623 17.7072 25.8949 -2.42795 38.6893 -1.62499
lowerback 6.63109 -0.643553 -0.282978
upperback 0.458122 -0.738428 3.48982
thorax -3.19728 -0.332024 3.84262
lowerneck -12.87 -3.82755 -10.4787
upperneck 25.1979 -3.92659 4.55008
head 10.516 -2.21044 2.90458
rclavicle 9.23355e-014 3.73715e-014
rhumerus -37.1724 -17.316 -74.5516
rradius 26.4762
rwrist 13.2501
rhand -13.8031 11.8211
rfingers 7.12502
rthumb 12.319 -17.796
lclavicle 9.23355e-014 3.73715e-014
lhumerus -31.1881 5.92284 86.5093
lradius 29.397
lwrist -10.9689
lhand -14.783 22.2802
lfingers 7.12502
lthumb 11.3741 51.9517
rfemur -8.87787 2.3598 26.0102
rtibia 16.1041
rfoot -2.09232 -1.59722
rtoes 3.03538
lfemur -12.0498 -0.498536 -17.9097
ltibia 64.6347
lfoot 20.2881 -5.19949
ltoes -1.96721
413
root 14.0461 17.7249 26.0202 -2.51145 38.513 -1.85733
lowerback 6.46599 -0.551949 -0.03189
upperback 0.402213 -0.601049 3.44567
thorax -3.17507 -0.267293 3.63942
lowerneck -13.0509 -3.4469 -9.8316
upperneck 25.106 -3.45235 4.2791
head 10.4538 -1.9596 2.75827
rclavicle -8.34896e-015 -1.98785e-014
rhumerus -37.1968 -17.5397 -74.5714
rradius 26.988
rwrist 13.7782
rhand -13.7001 11.7019
rfingers 7.12502
rthumb 12.4183 -17.9092
lclavicle -8.34896e-015 -1.98785e-014
lhumerus -31.9384 4.67684 87.0116
lradius 30.2431
lwrist -9.39708
lhand -15.1935 25.4448
lfingers 7.12502
lthumb 10.9781 55.1378
rfemur -8.39236 2.28092 26.3057
rtibia 15.6909
rfoot -2.5827 -2.11701
rtoes 11.284
lfemur -13.2693 -0.1108 -17.5884
ltibia 65.7394
lfoot 19.272 -4.07454
ltoes 0.833266
414
root 14.1238 17.7244 26.1436 -2.78414 38.3644 -2.0031
lowerback 6.4437 -0.446992 0.0946921
upperback 0.568575 -0.457748 3.40986
thorax -3.00076 -0.200422 3.5149
lowerneck -13.1918 -3.35238 -9.47783
upperneck 25.0027 -3.35267 4.13556
head 10.4238 -1.89457 2.65747
rclavicle 7.45939e-014 -2.78299e-014
rhumerus -36.823 -17.7107 -74.6808
rradius 27.321
rwrist 14.2341
rhand -13.8318 11.826
rfingers 7.12502
rthumb 12.2913 -17.7927
lclavicle 7.45939e-014 -2.78299e-014
lhumerus -32.1128 4.86623 86.9626
lradius 30.1257
lwrist -9.48235
lhand -15.3386 25.2068
lfingers 7.12502
lthumb 10.8382 54.9071
rfemur -7.35879 2.08506 26.5849
rtibia 15.1339
rfoot -2.84596 -1.96328
rtoes 10.9041
lfemur -14.239 0.281962 -17.3743
ltibia 66.7045
lfoot 15.8434 -4.58093
ltoes -4.97699
415
root 14.1983 17.7178 26.2703 -3.09219 38.3129 -2.39472
lowerback 6.30172 -0.402924 0.33727
upperback 0.674499 -0.383946 3.49496
thorax -2.81734 -0.167612 3.45651
lowerneck -13.158 -3.35664 -9.56334
upperneck 24.911 -3.35316 4.18462
head 10.3865 -1.89632 2.68844
rclavicle -1.20265e-014 1.59028e-015
rhumerus -36.1443 -17.3831 -74.8754
rradius 27.1878
rwrist 14.095
rhand -14.188 12.0114
rfingers 7.12502
rthumb 11.9478 -17.6277
lclavicle -1.20265e-014 1.59028e-015
lhumerus -32.1012 6.12246 86.5506
lradius 29.3025
lwrist -10.6163
lhand -15.0694 23.1936
lfingers 7.12502
lthumb 11.0978 52.8802
rfemur -6.30025 2.0273 27.0973
rtibia 14.7449
rfoot -3.15898 -1.65362
rtoes 4.36366
lfemur -15.4189 0.703946 -16.9007
ltibia 67.5373
lfoot 13.2719 -4.83043
ltoes -7.517
416
root 14.28 17.7156 26.3899 -3.07271 38.3047 -2.51654
lowerback 6.15227 -0.389356 0.520326
upperback 0.57884 -0.356704 3.43216
thorax -2.83558 -0.156087 3.28429
lowerneck -13.0462 -3.3051 -9.5396
upperneck 25.0138 -3.31288 4.24819
head 10.399 -1.86988 2.71533
rclavicle 5.45167e-014 2.3059e-014
rhumerus -35.6881 -16.9543 -75.134
rradius 26.9838
rwrist 13.9335
rhand -14.5827 12.2116
rfingers 7.12502
rthumb 11.5672 -17.4492
lclavicle 5.45167e-014 2.3059e-014
lhumerus -32.522 6.50282 86.3367
lradius 28.9773
lwrist -10.6275
lhand -15.0053 22.0731
lfingers 7.12502
lthumb 11.1596 51.7563
rfemur -5.57528 1.92141 27.274
rtibia 14.6433
rfoot -3.87396 -1.81512
rtoes 3.85535
lfemur -16.6777 1.02679 -16.7395
ltibia 68.1448
lfoot 11.5526 -4.23771
ltoes -7.32627
417
root 14.3537 17.7085 26.5011 -3.02707 38.2461 -2.41237
lowerback 6.31707 -0.265114 0.51897
upperback 0.446123 -0.189175 3.28603
thorax -3.07436 -0.0719277 3.12184
lowerneck -12.707 -3.33958 -9.35031
upperneck 24.9403 -3.43993 4.25473
head 10.3113 -1.91101 2.67102
rclavicle -5.37713e-014 -3.18055e-015
rhumerus -35.5242 -17.1108 -75.1774
rradius 27.048
rwrist 14.1009
rhand -14.6023 12.229
rfingers 7.12502
rthumb 11.5483 -17.4329
lclavicle -5.37713e-014 -3.18055e-015
lhumerus -33.0461 6.66894 86.1252
lradius 28.9068
lwrist -11.032
lhand -14.5473 19.7132
lfingers 7.12502
lthumb 11.6013 49.3721
rfemur -5.09209 1.98613 27.2628
rtibia 14.8445
rfoot -4.60931 -1.96956
rtoes 4.34696
lfemur -17.7622 1.16682 -16.7848
ltibia 68.5612
lfoot 10.2193 -3.47767
ltoes -7.3544
418
root 14.4274 17.6993 26.6151 -3.11013 38.1271 -2.26542
lowerback 6.52636 -0.108179 0.455095
upperback 0.451566 0.0168815 3.20129
thorax -3.19633 0.0314376 3.05305
lowerneck -12.6113 -3.47039 -9.51108
upperneck 24.999 -3.61798 4.34355
head 10.3342 -1.99875 2.70853
rclavicle 4.85283e-014 1.98785e-014
rhumerus -35.0978 -16.8206 -75.3471
rradius 27.0591
rwrist 13.6412
rhand -14.7448 12.2154
rfingers 7.12502
rthumb 11.4108 -17.4541
lclavicle 4.85283e-014 1.98785e-014
lhumerus -33.3162 7.25172 85.9793
lradius 28.5353
lwrist -11.5768
lhand -14.335 19.0306
lfingers 7.12502
lthumb 11.8061 48.6778
rfemur -4.54902 2.14823 27.2569
rtibia 15.227
rfoot -5.43956 -1.81855
rtoes -1.42831
lfemur -18.5217 1.11435 -16.8937
ltibia 68.7547
lfoot 8.8082 -2.78582
ltoes -6.83285
419
root 14.5043 17.6903 26.7266 -3.05989 38.0665 -2.06333
lowerback 6.52474 0.0223339 0.373665
upperback 0.529398 0.179103 3.1153
thorax -3.12284 0.111657 2.9941
lowerneck -12.6867 -3.52997 -9.62775
upperneck 25.0438 -3.67042 4.36076
head 10.3732 -2.03125 2.72745
rclavicle -7.16122e-014 7.95139e-015
rhumerus -34.5152 -16.5731 -75.5408
rradius 26.9836
rwrist 13.3919
rhand -15.0627 12.3541
rfingers 7.12502
rthumb 11.1043 -17.3321
lclavicle -7.16122e-014 7.95139e-015
lhumerus -33.4301 7.56222 85.9737
lradius 28.1929
lwrist -11.5231
lhand -14.1948 19.9902
lfingers 7.12502
lthumb 11.9413 49.6296
rfemur -4.14991 2.19655 27.1304
rtibia 15.6882
rfoot -5.68764 -1.88561
rtoes -1.29086
lfemur -19.3572 1.10841 -17.0964
ltibia 68.7156
lfoot 7.53264 -2.3127
ltoes -5.86365
420
root 14.5831 17.6829 26.8393 -3.12755 37.9063 -2.15487
lowerback 6.38651 0.143517 0.533457
upperback 0.660792 0.345128 3.10092
thorax -2.91677 0.190691 2.8727
lowerneck -12.7719 -3.54093 -9.63467
upperneck 24.9446 -3.65321 4.27988
head 10.3514 -2.03133 2.69943
rclavicle 1.33409e-013 1.66979e-014
rhumerus -33.7342 -15.9875 -75.87
rradius 26.9299
rwrist 12.8002
rhand -15.308 12.3578
rfingers 7.12502
rthumb 10.8677 -17.341
lclavicle 1.33409e-013 1.66979e-014
lhumerus -33.416 7.64696 86.1145
lradius 28.0367
lwrist -11.1975
lhand -14.055 19.1661
lfingers 7.12502
lthumb 12.0761 48.7977
rfemur -3.8655 2.24947 27.2895
rtibia 16.1844
rfoot -6.26169 -2.0379
rtoes -0.772272
lfemur -20.2655 1.47241 -17.0069
ltibia 68.4843
lfoot 6.37032 -2.09887
ltoes -5.56233
421
root 14.6661 17.6804 26.9559 -3.20857 37.5768 -2.13807
lowerback 6.42327 0.323967 0.660967
upperback 0.701748 0.590738 3.00475
thorax -2.90404 0.310531 2.67895
lowerneck -12.702 -3.57783 -9.6423
upperneck 24.8388 -3.73412 4.37286
head 10.3072 -2.05807 2.72275
rclavicle -2.06985e-014 -7.15625e-015
rhumerus -33.1859 -15.4498 -76.162
rradius 26.9965
rwrist 12.3233
rhand -15.2516 12.3662
rfingers 7.12502
rthumb 10.9221 -17.3297
lclavicle -2.06985e-014 -7.15625e-015
lhumerus -33.5313 7.46145 86.324
lradius 27.8762
lwrist -10.5757
lhand -14.1944 19.9154
lfingers 7.12502
lthumb 11.9416 49.5548
rfemur -3.42348 2.44232 27.3866
rtibia 16.5789
rfoot -6.9485 -2.28978
rtoes 0.101914
lfemur -21.0087 2.00759 -17.0051
ltibia 68.0258
lfoot 8.13423 -1.29482
ltoes 5.50174
422
root 14.7529 17.6764 27.0774 -3.11831 37.3022 -1.78407
lowerback 6.54029 0.492742 0.489145
upperback 0.641816 0.801547 2.86376
thorax -3.04053 0.416828 2.6102
lowerneck -12.7442 -3.60614 -9.8166
upperneck 25.0884 -3.77827 4.56173
head 10.4178 -2.0748 2.81783
rclavicle -1.53313e-014 1.74931e-014
rhumerus -32.918 -14.9823 -76.3112
rradius 27.1384
rwrist 11.8928
rhand -15.1366 12.4505
rfingers 7.12502
rthumb 11.033 -17.2395
lclavicle -1.53313e-014 1.74931e-014
lhumerus -34.0392 7.60776 86.2225
lradius 27.8402
lwrist -10.8617
lhand -13.1062 18.407
lfingers 7.12502
lthumb 12.9908 47.9825
rfemur -2.81266 2.62145 27.1619
rtibia 16.8026
rfoot -7.68906 -2.43976
rtoes 1.65773
lfemur -21.5899 2.33866 -17.3655
ltibia 67.3299
lfoot 3.12237 -1.67463
ltoes -9.38575
